PathFileType	4	(X/Y/Z)	C:/Users/beibeiliu/ov580/test_trc/User2\sequence.20_training_dense_left.trc
DataRate	CameraRate	NumFrames	NumMarkers	Units	OrigDataRate	OrigDataStartFrame	OrigNumFrames
120	120	19	19	mm	120	120	318
Frame#	Time	ThumbCMC			ThumbMCP			ThumbIP			ThumbTip			IndexMCP			IndexPIP			IndexTip			MiddleMCP			MiddlePIP			MiddleTip			RingMCP			RingPIP			RingTip			PinkyMCP			PinkyPIP			PinkyTip			BackHand1			BackHand2			BackHand3	
		X0	Y0	Z0	X1	Y1	Z1	X2	Y2	Z2	X3	Y3	Z3	X4	Y4	Z4	X5	Y5	Z5	X6	Y6	Z6	X7	Y7	Z7	X8	Y8	Z8	X9	Y9	Z9	X10	Y10	Z10	X11	Y11	Z11	X12	Y12	Z12	X13	Y13	Z13	X14	Y14	Z14	X15	Y15	Z15	X16	Y16	Z16	X17	Y17	Z17	X18	Y18	Z18	
119	0.991667	-167.932	-27.2908	64.367	-152.873	-13.1677	33.1008	-169.798	-6.44951	0.974643	-197.547	-11.0734	-9.33272	-189.388	29.7283	14.8243	-197.613	48.4601	-4.77849	-209.418	67.12	-24.9215	-217.277	35.1357	7.32359	-222.585	54.3646	-16.9012	-230.916	75.4288	-36.6821	-235.152	26.1916	10.1669	-237.403	41.6738	-9.30539	-244.138	58.6943	-29.8348	-248.296	4.03958	18.6477	-253.06	20.2849	-0.786912	-250.793	40.1622	-17.795	-231.904	-0.648187	56.6176	-230.18	-15.7988	87.1749	-196.652	-3.17366	74.7747	
120	1	-163.226	-32.3477	65.7207	-152.07	-23.1221	35.4565	-167.839	-15.0752	2.01629	-190.919	-15.9423	-9.66893	-187.086	28.327	10.4936	-192.752	43.1653	-7.81856	-199.151	62.646	-26.7351	-211.076	30.903	7.46558	-214.139	51.0545	-18.992	-222.061	69.7647	-37.7087	-227.041	23.147	11.5318	-231.544	38.7676	-9.78631	-237.303	60.1883	-33.7312	-242.685	7.31026	16.9935	-245.056	24.4355	-2.69815	-247.457	39.0852	-13.8222	-228.133	-2.09953	59.6115	-226.421	-14.5664	87.8398	-188.292	-2.95015	69.2779	
121	1.00833	-160.401	-35.7164	63.6479	-149.303	-29.909	33.314	-164.855	-20.4987	-0.168566	-195.678	-18.3527	-11.5338	-184.967	22.1767	7.18591	-189.472	37.9331	-11.991	-199.168	57.8911	-33.9374	-206.801	30.0377	0.393675	-207.191	44.0396	-20.612	-217.843	64.6509	-40.217	-228.071	21.4285	8.00471	-231.955	36.892	-13.5961	-233.415	54.5113	-36.0463	-243.354	4.7483	19.1567	-245.577	20.1721	-0.9747	-246.268	37.4955	-15.8714	-222.335	-1.01791	55.4805	-222.148	-13.6271	89.4956	-185.878	-5.11877	70.5656	
122	1.01667	-163.033	-39.5174	64.0617	-150.265	-32.2259	30.5528	-165.496	-25.3225	-5.61665	-195.02	-23.3913	-12.7189	-181.894	18.794	1.70699	-185.928	30.8857	-16.9386	-191.211	47.663	-37.4296	-204.196	24.9296	-2.0105	-206.274	38.7381	-26.9175	-211.271	59.0554	-49.4089	-225.509	19.9339	3.26715	-229.06	33.7092	-17.648	-231.15	47.5625	-39.2332	-241.692	6.48807	14.6455	-242.265	16.4185	-2.82941	-239.676	33.9012	-19.637	-222.114	-0.484626	53.6906	-217.691	-9.79719	88.9915	-181.159	-7.4538	67.7203	
123	1.025	-156.437	-39.9562	60.5186	-149.17	-35.7278	26.329	-167.478	-31.5107	-4.52838	-193.575	-31.3185	-15.5126	-176.476	10.6716	-1.47293	-185.5	26.2124	-24.6053	-190.935	41.2297	-48.01	-200.349	18.2196	-6.6765	-207.824	30.7248	-32.3161	-209.302	47.4663	-55.6281	-219.597	12.5054	2.78128	-226.171	25.7291	-22.0174	-226.723	40.9004	-46.0133	-237.926	-1.07306	16.5944	-238.482	11.6204	-6.87491	-241.642	27.7811	-19.5927	-218.351	-3.75769	56.8915	-211.256	-9.25913	85.0125	-181.462	-8.47476	67.9218	
124	1.03333	-156.206	-42.6802	61.0531	-149.128	-42.6557	28.9694	-165.334	-39.1856	-6.3703	-192.95	-39.1381	-12.9574	-178.064	3.0345	-3.40856	-185	14.3694	-26.3425	-191.176	28.2282	-50.9185	-196.856	10.2342	-8.69784	-205.729	21.6028	-37.3643	-208.358	35.5991	-60.9176	-220.038	6.7104	0.275345	-221.912	15.9432	-22.9176	-222.245	30.4516	-51.4134	-238.537	-5.83768	15.221	-237.592	5.17141	-9.85863	-238.042	21.5892	-25.1751	-212.132	-4.54127	52.3548	-209.96	-9.52762	87.7416	-177.59	-12.4298	66.1064	
125	1.04167	-152.954	-45.1421	63.1792	-143.693	-50.2823	30.1279	-162.649	-49.7221	-2.76791	-191.926	-47.0759	-10.1544	-172.963	-5.29689	-4.75406	-178.193	4.16748	-30.1835	-187.988	15.0991	-56.0165	-195.558	3.24549	-14.4184	-202.995	10.4815	-40.6612	-208.652	23.1	-67.2287	-218.027	0.476839	-3.19911	-217.885	8.00836	-30.8393	-223.219	18.8941	-54.1368	-234.958	-11.5161	14.056	-234.505	-2.44045	-10.6735	-236.638	10.601	-27.924	-212.509	-6.85018	52.0461	-206.475	-8.42207	83.4954	-174.248	-13.3944	64.0423	
126	1.05	-150.705	-48.9142	64.2164	-143.584	-55.7132	33.7524	-163.988	-57.0168	-2.40804	-193.056	-55.4857	-5.64712	-171.722	-12.863	-11.5459	-176.588	-8.17077	-34.7525	-188.602	-0.012343	-62.281	-195.344	-7.35286	-11.3421	-197.532	-3.85501	-40.5818	-204.132	4.98635	-69.075	-216.585	-7.87267	-9.55998	-218.568	-5.49214	-31.6106	-220.5	2.14297	-56.2061	-234.418	-16.2801	13.4089	-231.561	-13.2348	-9.56115	-234.701	-2.05552	-32.9897	-208.467	-8.29548	48.6437	-203.77	-11.3532	85.5576	-173.743	-13.257	60.5412	
127	1.05833	-148.249	-50.1363	65.9373	-140.006	-63.0587	32.2378	-164.587	-66.3157	4.45124	-197.544	-62.4047	-0.99482	-173.423	-23.1125	-11.8454	-176.572	-21.4353	-35.9055	-187.917	-15.4367	-64.4563	-191.545	-17.8903	-18.3756	-199.404	-17.3113	-45.6875	-207.363	-10.8142	-74.4592	-213.77	-18.4856	-9.48873	-219.675	-18.0374	-31.615	-218.675	-12.2824	-62.0406	-233.096	-23.9055	12.5958	-236.068	-21.7501	-10.9254	-234.052	-14.7964	-35.5533	-204.856	-13.5772	52.0803	-200.939	-9.07578	79.8046	-172.401	-15.7509	58.2906	
128	1.06667	-146.797	-53.5844	67.1297	-141.102	-70.0187	34.4096	-167.98	-75.7688	7.41698	-196.877	-73.7954	5.84174	-172.808	-33.524	-9.48247	-179.188	-33.8499	-37.82	-184.497	-34.007	-61.8303	-194.56	-28.6603	-18.7145	-199.239	-30.0883	-45.9618	-210.476	-28.2012	-73.4585	-214.846	-27.5679	-10.5842	-219.251	-29.4186	-30.2599	-221.836	-27.9779	-62.0411	-229.206	-31.9348	15.3173	-235.409	-30.9947	-11.3571	-233.157	-26.5755	-37.3501	-204.285	-17.4579	48.6997	-198.136	-9.35044	81.4973	-166.236	-19.1387	60.0374	
129	1.075	-144.741	-57.9349	67.4085	-144.242	-77.3816	37.2201	-173.955	-83.871	11.3532	-198.339	-80.6232	15.1334	-170.236	-45.0756	-8.95248	-180.732	-47.58	-38.8798	-188.537	-48.7929	-60.3286	-197.576	-39.1122	-14.2619	-203.125	-45.5346	-44.2653	-213.382	-44.074	-70.8884	-216.223	-37.6651	-7.36873	-222.643	-40.9745	-29.6797	-226.827	-44.2988	-58.0091	-231.469	-37.4346	16.7596	-233.848	-41.709	-8.48315	-235.058	-38.4232	-33.641	-201.65	-20.4077	49.5206	-192.357	-10.8781	79.2806	-163.189	-24.7906	56.1589	
130	1.08333	-145.423	-61.8238	67.0433	-147.915	-83.4902	37.4417	-179.245	-92.3897	18.1057	-207.046	-85.1276	20.8173	-173.085	-54.8337	-6.95088	-186.76	-57.9196	-33.4052	-199.587	-61.0624	-58.4332	-197.578	-50.3032	-12.9095	-208.316	-57.6738	-37.7099	-218.834	-60.0836	-64.23	-218.316	-43.7913	0.530348	-223.57	-53.5313	-28.2569	-232.036	-58.469	-54.9867	-230.439	-44.8169	18.9636	-235.92	-51.3309	-2.73364	-241.498	-51.1755	-27.2399	-202.616	-23.0486	47.4449	-191.633	-13.8547	79.3035	-162.167	-27.7446	58.4802	
131	1.09167	-147.645	-65.6824	71.8938	-152.642	-90.1125	44.378	-182.619	-99.9363	25.8692	-211.796	-89.72	30.2924	-180.405	-62.6276	-5.43584	-191.165	-67.4226	-26.6916	-208.478	-71.4655	-49.0689	-203.509	-56.7466	-9.96416	-215.322	-66.5849	-33.2063	-230.527	-70.0202	-59.8398	-222.109	-50.8343	3.4338	-232.822	-58.6255	-20.5649	-242.381	-67.009	-43.8199	-230.829	-48.607	25.5021	-242.56	-56.0981	3.24831	-249.469	-57.1788	-22.385	-203.01	-25.2955	53.4135	-186.886	-13.0621	78.8052	-163.227	-31.0284	59.579	
132	1.1	-148.382	-69.0834	71.495	-156.609	-96.6355	45.6673	-189.301	-102.864	28.7868	-215.714	-93.805	33.5686	-186.382	-67.3096	-0.298	-200.94	-72.451	-23.364	-214.485	-78.5826	-45.0702	-208.715	-62.01	-6.15466	-224.196	-71.3094	-28.159	-239.672	-77.0036	-55.1995	-222.752	-55.8887	5.7212	-238.417	-64.0641	-15.5278	-246.033	-73.6351	-38.5546	-233.326	-50.2055	30.3293	-245.785	-59.3973	6.86208	-255.122	-64.1295	-15.729	-201.488	-30.3294	53.3979	-183.778	-13.8969	83.0467	-162.642	-36.0987	54.4523	
133	1.10833	-147.323	-72.8397	71.419	-157.584	-98.4638	49.5047	-192.072	-103.852	34.06	-222.328	-90.8913	36.1697	-187.559	-69.8782	2.41232	-205.329	-75.9485	-19.1427	-221.619	-82.1752	-42.8277	-211.966	-62.3167	-0.710198	-225.104	-74.6139	-24.1903	-244.925	-78.0786	-46.847	-228.877	-51.7075	14.1989	-239.347	-64.5454	-8.40798	-252.82	-75.6112	-34.6611	-238.708	-47.1293	35.5497	-250.64	-55.7933	14.4052	-256.559	-64.1061	-7.22433	-199.133	-26.6301	58.775	-183.582	-13.5974	83.483	-163.68	-35.4367	59.3154	
134	1.11667	-148.861	-71.7608	75.0132	-162.827	-94.3092	48.8312	-195.105	-100.492	34.2451	-221.752	-91.0271	38.3916	-191.623	-68.4606	3.71219	-206.821	-77.9844	-22.4268	-226.385	-80.8216	-37.9579	-212.587	-61.998	0.194116	-229.438	-70.6756	-19.3799	-247.078	-79.9074	-47.1348	-230.726	-50.6331	15.3578	-242.653	-62.4107	-7.18344	-259.49	-72.0237	-31.4075	-240.643	-44.8482	34.7541	-249.895	-55.8722	13.6508	-258.338	-62.4046	-7.01563	-203.271	-28.9048	57.7924	-183.365	-14.4177	79.9673	-163.375	-36.2784	56.9209	
135	1.125	-147.126	-69.4541	75.5107	-158.994	-93.9921	48.0933	-195.021	-98.7087	31.8835	-223.346	-90.5365	34.2534	-195.657	-66.9987	0.448111	-212.952	-72.5344	-20.0696	-231.089	-76.772	-39.3691	-214.667	-58.943	1.40381	-229.963	-69.1941	-19.5354	-254.423	-73.4271	-46.1072	-229.184	-51.6447	12.9217	-247.281	-58.013	-7.5297	-258.627	-68.3856	-30.6792	-238.143	-43.9814	40.6101	-252.899	-51.5898	15.1875	-261.598	-55.6906	-4.85097	-200.718	-26.4591	59.3881	-188.417	-12.65	83.2024	-164.074	-35.1736	58.6199	
136	1.13333	-151.569	-66.5692	70.762	-159.633	-88.7969	43.268	-189.409	-97.5535	27.7372	-221.143	-87.2911	30.4426	-195.076	-62.5374	-1.28214	-212.041	-66.1223	-20.6015	-229.938	-70.2869	-39.3944	-214.956	-54.3997	-0.464096	-231.319	-64.0434	-23.2339	-250.309	-69.7322	-48.9518	-230.849	-45.853	15.5411	-243.97	-53.3092	-4.33049	-260.685	-60.9611	-31.4259	-240.405	-40.7227	35.4149	-254.413	-46.159	17.2023	-262.497	-50.6626	-8.55044	-199.189	-24.831	61.5736	-186.889	-10.6362	84.714	-166.179	-31.9332	58.7345	
137	1.14167	-149.715	-63.1032	69.2898	-154.566	-85.0052	41.2507	-189.088	-89.2879	24.543	-217.086	-82.5249	28.2036	-190.592	-55.4218	0.414472	-206.678	-61.2393	-25.5009	-224.757	-64.5431	-45.9368	-211.702	-48.1202	1.53848	-229.642	-56.0309	-26.043	-250.057	-57.5574	-48.6117	-230.445	-39.2263	16.0793	-245.409	-45.7661	-5.38144	-257.056	-53.5673	-34.4023	-238.337	-37.6627	35.9901	-252.911	-42.6348	14.3289	-258.753	-43.2891	-5.1987	-199.307	-21.0553	61.1237	-185.238	-11.1582	87.5355	-162.626	-29.7481	57.5809	
